<svg width="18" height="18" viewBox="0 0 18 18" fill="none" xmlns="http://www.w3.org/2000/svg">
<path d="M4.14029 7.79003C5.48963 10.62 7.66357 12.93 10.3154 14.38L12.3769 12.18C12.6299 11.91 13.0047 11.82 13.3327 11.94C14.3822 12.31 15.516 12.51 16.6779 12.51C17.1933 12.51 17.615 12.96 17.615 13.51V17C17.615 17.55 17.1933 18 16.6779 18C7.87909 18 0.748199 10.39 0.748199 1.00003C0.748199 0.450031 1.16987 3.05176e-05 1.68524 3.05176e-05H4.96489C5.48026 3.05176e-05 5.90193 0.450031 5.90193 1.00003C5.90193 2.25003 6.08934 3.45003 6.43605 4.57003C6.53912 4.92003 6.46416 5.31003 6.20179 5.59003L4.14029 7.79003Z" fill="#252525"/>
</svg>
